<svg xmlns="http://www.w3.org/2000/svg" viewBox="0 0 24 24" fill="none" stroke="currentColor" stroke-width="2" stroke-linecap="round" stroke-linejoin="round">
  <path d="M12 2C6.48 2 2 6.48 2 12s4.48 10 10 10c0 3.87-2.5 7.16-6 9.3.5 1.62 6.5 2.5 6.5 2.5 0 0 0 0zm-1.5 9c0-1.1.9-2 2-2.5 0-1.1-.9-2-2-2.5 0-1.1-.9-2-2-2.5zm0 4.5c-1.66 0-3 1.34-3 3s1.34 3 3 3 3 1.66 0 3-1.34 3-3 3-3zm0 4.5c-1.66 0-3 1.34-3 3s1.34 3 3 3 3 1.66 0 3-1.34 3-3 3-3zm0 4.5c-1.66 0-3 1.34-3 3s1.34 3 3 3 3 1.66 0 3-1.34 3-3 3-3z" />
  <circle cx="12" cy="12" r="3" fill="currentColor" />
</svg>
